<svg width="24" height="24" viewBox="0 0 64 64" fill="none" xmlns="http://www.w3.org/2000/svg">
<path d="M50.27 6.44997C47.2255 5.1936 43.8836 4.84045 40.6437 5.43274C37.4039 6.02503 34.4031 7.5377 32 9.78997C23.57 2.35997 13.8 4.63997 8.05998 10.14C2.05998 15.88 -0.590017 26.14 7.68998 35.14C8.22998 35.83 31 58.46 31 58.46C31.2829 58.7415 31.6658 58.8995 32.065 58.8995C32.4641 58.8995 32.847 58.7415 33.13 58.46L56.34 35.21C58.4116 33.1493 59.9346 30.603 60.7702 27.8031C61.6058 25.0032 61.7275 22.0387 61.1241 19.1797C60.5207 16.3207 59.2114 13.6582 57.3156 11.4348C55.4197 9.21134 52.9976 7.49768 50.27 6.44997V6.44997Z" fill="#fa4f00" id="id_101"></path>
</svg>